<svg width="24" height="24" viewBox="0 0 24 24" fill="none" xmlns="http://www.w3.org/2000/svg">
<path fill-rule="evenodd" clip-rule="evenodd" d="M12.3524 3.95202C12.5774 3.7273 12.8824 3.60107 13.2004 3.60107C13.5184 3.60107 13.8234 3.7273 14.0484 3.95202L21.2484 11.152C21.4731 11.377 21.5993 11.682 21.5993 12C21.5993 12.318 21.4731 12.623 21.2484 12.848L14.0484 20.048C13.8209 20.26 13.52 20.3754 13.2092 20.3699C12.8983 20.3644 12.6017 20.2385 12.3818 20.0186C12.1619 19.7988 12.036 19.5021 12.0305 19.1913C12.025 18.8804 12.1404 18.5795 12.3524 18.352L17.5034 13.2H3.60039C3.28213 13.2 2.97691 13.0736 2.75186 12.8485C2.52682 12.6235 2.40039 12.3183 2.40039 12C2.40039 11.6818 2.52682 11.3765 2.75186 11.1515C2.97691 10.9264 3.28213 10.8 3.60039 10.8H17.5034L12.3524 5.64802C12.1277 5.42302 12.0014 5.11802 12.0014 4.80002C12.0014 4.48202 12.1277 4.17702 12.3524 3.95202Z" fill="#0C0C0C"/>
</svg>
